HIERARCHY
ROOT hip
{
  OFFSET 0 0 0
  CHANNELS 6 Xposition Yposition Zposition Zrotation Yrotation Xrotation
  JOINT abdomen
  {
    OFFSET 0 20.6881 -0.73152
    CHANNELS 3 Zrotation Xrotation Yrotation
    JOINT chest
    {
      OFFSET 0 11.7043 -0.48768
      CHANNELS 3 Zrotation Xrotation Yrotation
      JOINT neck
      {
        OFFSET 0 22.1894 -2.19456
        CHANNELS 3 Zrotation Xrotation Yrotation
        JOINT head
        {
          OFFSET -0.24384 7.07133 1.2192
          CHANNELS 3 Zrotation Xrotation Yrotation
          JOINT leftEye
          {
            OFFSET 4.14528 8.04674 8.04672
            CHANNELS 3 Zrotation Xrotation Yrotation
            End Site
            {
              OFFSET 1 0 0
            }
          }
          JOINT rightEye
          {
            OFFSET -3.6576 8.04674 8.04672
            CHANNELS 3 Zrotation Xrotation Yrotation
            End Site
            {
              OFFSET 1 0 0
            }
          }
        }
      }
      JOINT rCollar
      {
        OFFSET -2.68224 19.2634 -4.8768
        CHANNELS 3 Zrotation Xrotation Yrotation
        JOINT rShldr
        {
          OFFSET -8.77824 -1.95073 1.46304
          CHANNELS 3 Zrotation Xrotation Yrotation
          JOINT rForeArm
          {
            OFFSET -28.1742 -1.7115 0.48768
            CHANNELS 3 Zrotation Xrotation Yrotation
            JOINT rHand
            {
              OFFSET -22.5879 0.773209 7.07136
              CHANNELS 3 Zrotation Xrotation Yrotation
              JOINT rThumb1
              {
                OFFSET -1.2192 -0.487915 3.41376
                CHANNELS 3 Zrotation Xrotation Yrotation
                JOINT rThumb2
                {
                  OFFSET -3.37035 -0.52449 3.41376
                  CHANNELS 3 Zrotation Xrotation Yrotation
                  End Site
                  {
                    OFFSET -1.78271 -1.18214 1.43049
                  }
                }
              }
              JOINT rIndex1
              {
                OFFSET -7.75947 0.938293 5.60832
                CHANNELS 3 Zrotation Xrotation Yrotation
                JOINT rIndex2
                {
                  OFFSET -2.54057 -0.884171 1.56538
                  CHANNELS 3 Zrotation Xrotation Yrotation
                  End Site
                  {
                    OFFSET -1.62519 -0.234802 1.16502
                  }
                }
              }
              JOINT rMid1
              {
                OFFSET -8.24714 1.18213 3.41376
                CHANNELS 3 Zrotation Xrotation Yrotation
                JOINT rMid2
                {
                  OFFSET -3.10165 -0.590103 1.0647
                  CHANNELS 3 Zrotation Xrotation Yrotation
                  End Site
                  {
                    OFFSET -2.48547 -0.328903 0.83742
                  }
                }
              }
              JOINT rRing1
              {
                OFFSET -8.82822 0.546677 1.51678
                CHANNELS 3 Zrotation Xrotation Yrotation
                JOINT rRing2
                {
                  OFFSET -2.60934 -0.819778 -0.0198488
                  CHANNELS 3 Zrotation Xrotation Yrotation
                  End Site
                  {
                    OFFSET -2.33842 -0.294052 0.168128
                  }
                }
              }
              JOINT rPinky1
              {
                OFFSET -8.27202 -0.0477905 -0.4584
                CHANNELS 3 Zrotation Xrotation Yrotation
                JOINT rPinky2
                {
                  OFFSET -1.82734 -0.647385 -0.700984
                  CHANNELS 3 Zrotation Xrotation Yrotation
                  End Site
                  {
                    OFFSET -1.69225 -0.51767 -0.607171
                  }
                }
              }
            }
          }
        }
      }
      JOINT lCollar
      {
        OFFSET 2.68224 19.2634 -4.8768
        CHANNELS 3 Zrotation Xrotation Yrotation
        JOINT lShldr
        {
          OFFSET 8.77824 -1.95073 1.46304
          CHANNELS 3 Zrotation Xrotation Yrotation
          JOINT lForeArm
          {
            OFFSET 28.1742 -1.7115 0.48768
            CHANNELS 3 Zrotation Xrotation Yrotation
            JOINT lHand
            {
              OFFSET 22.5879 0.773209 7.07136
              CHANNELS 3 Zrotation Xrotation Yrotation
              JOINT lThumb1
              {
                OFFSET 1.2192 -0.487915 3.41376
                CHANNELS 3 Zrotation Xrotation Yrotation
                JOINT lThumb2
                {
                  OFFSET 3.37035 -0.52449 3.41376
                  CHANNELS 3 Zrotation Xrotation Yrotation
                  End Site
                  {
                    OFFSET 1.78271 -1.18214 1.43049
                  }
                }
              }
              JOINT lIndex1
              {
                OFFSET 7.75947 0.938293 5.60832
                CHANNELS 3 Zrotation Xrotation Yrotation
                JOINT lIndex2
                {
                  OFFSET 2.54057 -0.884171 1.56538
                  CHANNELS 3 Zrotation Xrotation Yrotation
                  End Site
                  {
                    OFFSET 1.62519 -0.234802 1.16502
                  }
                }
              }
              JOINT lMid1
              {
                OFFSET 8.24714 1.18213 3.41376
                CHANNELS 3 Zrotation Xrotation Yrotation
                JOINT lMid2
                {
                  OFFSET 3.10165 -0.590103 1.0647
                  CHANNELS 3 Zrotation Xrotation Yrotation
                  End Site
                  {
                    OFFSET 2.48547 -0.328903 0.83742
                  }
                }
              }
              JOINT lRing1
              {
                OFFSET 8.82822 0.546677 1.51678
                CHANNELS 3 Zrotation Xrotation Yrotation
                JOINT lRing2
                {
                  OFFSET 2.60934 -0.819778 -0.0198488
                  CHANNELS 3 Zrotation Xrotation Yrotation
                  End Site
                  {
                    OFFSET 2.33842 -0.294052 0.168128
                  }
                }
              }
              JOINT lPinky1
              {
                OFFSET 8.27202 -0.0477905 -0.4584
                CHANNELS 3 Zrotation Xrotation Yrotation
                JOINT lPinky2
                {
                  OFFSET 1.82734 -0.647385 -0.700984
                  CHANNELS 3 Zrotation Xrotation Yrotation
                  End Site
                  {
                    OFFSET 1.69225 -0.51767 -0.607171
                  }
                }
              }
            }
          }
        }
      }
    }
  }
  JOINT rButtock
  {
    OFFSET -8.77824 4.35084 1.2192
    CHANNELS 3 Zrotation Xrotation Yrotation
    JOINT rThigh
    {
      OFFSET 0 -1.70687 -2.19456
      CHANNELS 3 Zrotation Xrotation Yrotation
      JOINT rShin
      {
        OFFSET 0 -36.8199 0.73152
        CHANNELS 3 Zrotation Xrotation Yrotation
        JOINT rFoot
        {
          OFFSET 0.73152 -45.1104 -5.12064
          CHANNELS 3 Zrotation Xrotation Yrotation
          End Site
          {
            OFFSET -1.1221 -3.69964 12.103
          }
        }
      }
    }
  }
  JOINT lButtock
  {
    OFFSET 8.77824 4.35084 1.2192
    CHANNELS 3 Zrotation Xrotation Yrotation
    JOINT lThigh
    {
      OFFSET 0 -1.70687 -2.19456
      CHANNELS 3 Zrotation Xrotation Yrotation
      JOINT lShin
      {
        OFFSET 0 -36.8199 0.73152
        CHANNELS 3 Zrotation Xrotation Yrotation
        JOINT lFoot
        {
          OFFSET -0.73152 -45.1104 -5.12064
          CHANNELS 3 Zrotation Xrotation Yrotation
          End Site
          {
            OFFSET 1.1221 -3.69964 12.103
          }
        }
      }
    }
  }
}
MOTION
Frames:	4
Frame Time:	0.03333
-0.25570003688596527 41.63959940701159 -26.41099989186045 -159.1929931640625 76.09210968017578 -152.70799255371094 -2.125990390777588 15.149601936340332 16.500598907470703 -5.007750511169434 -14.269201278686523 3.8221805095672607 0.6493489742279053 15.072700500488281 13.223097801208496 -0.49965596199035645 -19.73000144958496 26.040998458862305 -0.0 0.0 -0.0 -0.0 0.0 -0.0 -2.4032300672063855e-13 -5.022749794206249e-13 2.6503599933214855e-14 2.3141696453094482 62.17460250854492 68.02059173583984 -26.36899757385254 -45.52210235595703 94.54069519042969 -0.23274199664592743 13.6131010055542 1.950379729270935 -6.173250244323469e-10 -6.104499572501254e-09 -5.931450330898258e-10 -1.0724798826799997e-09 -1.0528299121403961e-08 -1.0183999199497862e-09 -6.173250244323469e-10 -6.104480032576021e-09 -5.931450330898258e-10 7.730909824371338 5.474879741668701 0.4173140823841095 -6.173279665233622e-10 -6.104499572501254e-09 -5.931419799765081e-10 2.9055399894714355 0.9651829600334167 0.10290199518203735 -6.173199729175849e-10 -6.104489802538637e-09 -5.931390378854928e-10 10.27859878540039 0.73180091381073 0.025912316516041756 -6.173300204359577e-10 -6.104480032576021e-09 -5.931359847721751e-10 2.221669912338257 -0.733487069606781 -0.208919957280159 -2.4036098090172986e-13 -5.022830025167013e-13 2.6373100955163174e-14 -56.543792724609375 -1.8497494459152222 -18.542999267578125 26.721399307250977 -44.72210693359375 -92.89399719238281 1.7273800373077393 -34.545902252197266 5.552239418029785 1.4885100096950765e-10 9.107530285490384e-10 1.1927699938851788e-09 2.1908198866160689e-10 1.6378800538063842e-09 2.0752799478884754e-09 1.4885299937095198e-10 9.10746922322403e-10 1.192779874870098e-09 -7.730909824371338 5.474879741668701 -0.4173140823841095 1.4885100096950765e-10 9.107520293483162e-10 1.1927600018779572e-09 -2.9055399894714355 0.9651829600334167 -0.10290199518203735 1.48847004166619e-10 9.107530285490384e-10 1.1927600018779572e-09 -10.27859878540039 0.73180091381073 -0.025912316516041756 1.4885599697311847e-10 9.107539722386093e-10 1.1927500098707355e-09 -2.221669912338257 -0.733487069606781 0.208919957280159 -2.0321699480147914e-16 0.0 -3.8825099822884138e-19 -78.92139434814453 -37.063899993896484 -60.618202209472656 -173.97900390625 80.08982849121094 176.2919921875 -0.9479149580001831 -24.00300407409668 -3.748849391937256 2.0321699480147914e-16 0.0 3.8825099822884138e-19 104.5510025024414 -50.90590286254883 82.46260070800781 174.64598083496094 75.59950256347656 -175.08900451660156 -9.465609550476074 -24.099802017211914 -13.231498718261719
-0.30010003843633687 41.34819963135675 -26.374999892406123 -158.96499633789062 75.9500961303711 -152.41600036621094 -1.927720069885254 15.272902488708496 16.403100967407227 -5.104780197143555 -14.364599227905273 3.7803900241851807 0.6522259712219238 15.02649974822998 13.236297607421875 -0.5073800086975098 -19.792299270629883 26.062402725219727 -0.0 0.0 -0.0 -0.0 0.0 -0.0 -2.81425978441302e-13 -6.734779292409676e-13 2.195079784172299e-13 2.0709500312805176 61.99191665649414 68.1843032836914 -26.370302200317383 -45.51940155029297 94.53489685058594 -0.22423399984836578 13.365601539611816 1.913599967956543 5.469810160363409e-10 8.544200347238018e-10 -1.6160998927983172e-10 9.36779986915326e-10 1.4198699993528408e-09 -2.840720159102972e-10 5.469810160363409e-10 8.54422976814817e-10 -1.6161399996050818e-10 7.730909824371338 5.474879741668701 0.4173140823841095 5.469779629230231e-10 8.544209784133727e-10 -1.6160399407549875e-10 2.9055399894714355 0.9651829600334167 0.10290199518203735 5.469849573280783e-10 8.544259744169835e-10 -1.6160599247694307e-10 10.27859878540039 0.73180091381073 0.025912316516041756 5.469759645215788e-10 8.544299712198722e-10 -1.6160399407549875e-10 2.221669912338257 -0.733487069606781 -0.208919957280159 -2.815509869517896e-13 -6.734879581110631e-13 2.1935899548620325e-13 -56.53850173950195 -1.937779426574707 -18.452497482299805 26.7211971282959 -44.722694396972656 -92.89519500732422 1.8103700876235962 -35.23410415649414 5.696910858154297 -1.082089973181155e-09 1.5241898854156943e-09 1.5358900262718578e-10 -1.873049715328534e-09 2.611369787075546e-09 2.3761800860278015e-10 -1.082089973181155e-09 1.5241700124235535e-09 1.5360498983874038e-10 -7.730909824371338 5.474879741668701 -0.4173140823841095 -1.0820999651883767e-09 1.5241800044307752e-09 1.5358599114723148e-10 -2.9055399894714355 0.9651829600334167 -0.10290199518203735 -1.0820999651883767e-09 1.5241800044307752e-09 1.5358599114723148e-10 -10.27859878540039 0.73180091381073 -0.025912316516041756 -1.082089973181155e-09 1.5241800044307752e-09 1.5357298766005556e-10 -2.221669912338257 -0.733487069606781 0.208919957280159 -2.0321699480147914e-16 0.0 -3.8825099822884138e-19 -79.51219940185547 -36.98689270019531 -61.08579635620117 -174.16400146484375 79.73079681396484 176.4969940185547 -0.8659989833831787 -24.028701782226562 -3.6139097213745117 2.0321699480147914e-16 0.0 3.8825099822884138e-19 105.64599609375 -50.92700958251953 83.37769317626953 174.78298950195312 75.118408203125 -175.22999572753906 -9.487679481506348 -24.00320053100586 -13.23640251159668
-0.4144000392051136 41.083898631233936 -26.491999898970317 -157.60899353027344 75.80570220947266 -151.0659942626953 -1.5126001834869385 15.369197845458984 16.268901824951172 -5.264779567718506 -14.417899131774902 3.729410171508789 0.6806290149688721 14.97610092163086 13.224800109863281 -0.5789299607276917 -19.771800994873047 26.02570152282715 -0.0 0.0 -0.0 -0.0 0.0 -0.0 -2.2794998310801673e-13 -5.687260016228046e-13 3.269289949436177e-13 1.8698898553848267 61.85570526123047 68.23860168457031 -26.370996475219727 -45.518001556396484 94.53199005126953 -0.22390002012252808 13.355401992797852 1.9120802879333496 1.5038899014996332e-09 9.339579776224127e-09 5.942739633724159e-10 2.594360060115264e-09 1.6041200368022146e-08 1.0127999550135769e-09 1.5038899014996332e-09 9.339589546186744e-09 5.942659697666386e-10 7.730909824371338 5.474879741668701 0.4173140823841095 1.5038899014996332e-09 9.339589546186744e-09 5.942780156864558e-10 2.9055399894714355 0.9651829600334167 0.10290199518203735 1.5038998935068548e-09 9.339589546186744e-09 5.942739633724159e-10 10.27859878540039 0.73180091381073 0.025912316516041756 1.5038899014996332e-09 9.339589546186744e-09 5.942739633724159e-10 2.221669912338257 -0.733487069606781 -0.208919957280159 -2.2804897076636466e-13 -5.687209600827026e-13 3.2664699395855423e-13 -56.61320114135742 -2.0086898803710938 -18.41659927368164 26.73649787902832 -44.68579864501953 -92.82019805908203 1.850579857826233 -35.55960464477539 5.766170024871826 -1.7925499973259207e-09 1.4287999672291107e-09 -8.924320171743716e-10 -3.063859832508342e-09 2.368729878909903e-09 -1.5987500212588657e-09 -1.7925499973259207e-09 1.4287999672291107e-09 -8.924149752509436e-10 -7.730909824371338 5.474879741668701 -0.4173140823841095 -1.7925499973259207e-09 1.4287999672291107e-09 -8.924310179736494e-10 -2.9055399894714355 0.9651829600334167 -0.10290199518203735 -1.7925599893331423e-09 1.4287999672291107e-09 -8.924330163750938e-10 -10.27859878540039 0.73180091381073 -0.025912316516041756 -1.7925398942963966e-09 1.4287999672291107e-09 -8.924439520718863e-10 -2.221669912338257 -0.733487069606781 0.208919957280159 -2.0321699480147914e-16 0.0 -3.8825099822884138e-19 -79.9668960571289 -36.82340621948242 -61.553497314453125 -174.31199645996094 79.42740631103516 176.66598510742188 -0.7741870284080505 -24.060001373291016 -3.459580183029175 2.0321699480147914e-16 0.0 3.8825099822884138e-19 106.89899444580078 -50.96829605102539 84.34970092773438 174.90599060058594 74.65119934082031 -175.35299682617188 -9.512889862060547 -23.94580078125 -13.234698295593262
-0.47040003983853407 40.799598837221325 -26.512999899207852 -158.0989990234375 75.52660369873047 -151.39999389648438 -1.1246497631072998 15.480801582336426 16.16349983215332 -5.399590015411377 -14.462899208068848 3.6894798278808594 0.7109240293502808 14.929402351379395 13.20669937133789 -0.654587984085083 -19.733299255371094 25.97549819946289 -0.0 0.0 -0.0 -0.0 0.0 -0.0 -1.7885997858572283e-13 -4.4131099599317714e-13 3.786849848454177e-13 1.683170199394226 61.71819305419922 68.25819396972656 -26.36939811706543 -45.521400451660156 94.53899383544922 -0.2251889854669571 13.39339828491211 1.9177299737930298 1.9092298852996237e-09 1.520639969498916e-08 1.2577200392271948e-09 3.299049922134145e-09 2.6175099421266168e-08 2.155969847095207e-09 1.9092298852996237e-09 1.520639969498916e-08 1.2577100472199731e-09 7.730909824371338 5.474879741668701 0.4173140823841095 1.9092400993514502e-09 1.520639969498916e-08 1.2577200392271948e-09 2.9055399894714355 0.9651829600334167 0.10290199518203735 1.9092400993514502e-09 1.520639969498916e-08 1.2577200392271948e-09 10.27859878540039 0.73180091381073 0.025912316516041756 1.9092298852996237e-09 1.520639969498916e-08 1.2577200392271948e-09 2.221669912338257 -0.733487069606781 -0.208919957280159 -1.7891399895896692e-13 -4.4129297113205956e-13 3.7828700133295257e-13 -56.715396881103516 -2.077770233154297 -18.421602249145508 26.760700225830078 -44.62710189819336 -92.70100402832031 1.8631799221038818 -35.661903381347656 5.787960529327393 -2.3355999356766688e-09 1.372309932357041e-09 -1.6571098937490092e-09 -3.976589724175028e-09 2.2163100243943745e-09 -2.9402800194588963e-09 -2.3355999356766688e-09 1.3723199243642625e-09 -1.657089909734566e-09 -7.730909824371338 5.474879741668701 -0.4173140823841095 -2.335589943669447e-09 1.3723199243642625e-09 -1.6571098937490092e-09 -2.9055399894714355 0.9651829600334167 -0.10290199518203735 -2.3355999356766688e-09 1.3723199243642625e-09 -1.6571098937490092e-09 -10.27859878540039 0.73180091381073 -0.025912316516041756 -2.335589943669447e-09 1.3723199243642625e-09 -1.6571199967785333e-09 -2.221669912338257 -0.733487069606781 0.208919957280159 -2.0321699480147914e-16 0.0 -3.8825099822884138e-19 -80.38099670410156 -36.65520095825195 -61.98849868774414 -174.4359893798828 79.1560287475586 176.80499267578125 -0.659515917301178 -24.097801208496094 -3.262890338897705 2.0321699480147914e-16 0.0 3.8825099822884138e-19 108.03099822998047 -50.96550369262695 85.21379852294922 175.00999450683594 74.22931671142578 -175.45498657226562 -9.55341911315918 -23.90690040588379 -13.25879955291748
